<svg xmlns="http://www.w3.org/2000/svg" width="24" height="24" viewBox="0 0 38 38" fill="none">
  <path d="M35.1165 15.4434C34.8009 13.5797 34.0609 11.833 32.9162 10.2515C31.6233 8.46515 29.8547 6.97365 27.8016 5.93837C25.7264 4.89196 23.4102 4.33862 21.1032 4.33862C20.4523 4.33862 19.7963 4.38287 19.1531 4.46945C16.4596 4.83336 13.8111 5.95387 11.6955 7.62462C9.31166 9.50708 7.77333 11.9273 7.24705 14.6242C7.09025 15.4259 7.02345 16.3128 6.95877 17.1703C6.85742 18.5127 6.75265 19.9008 6.32578 20.8078C6.03404 21.4278 5.59874 21.8406 4.42201 21.8406C3.77443 21.8406 3.18271 22.2068 2.89366 22.7865C2.6048 23.3661 2.66853 24.0592 3.05814 24.576C4.83102 26.9279 7.14456 28.3525 9.58036 29.2108C9.46943 29.5459 9.40706 29.9027 9.40706 30.275C9.40706 32.1452 10.9231 33.6613 12.7933 33.6613C14.6172 33.6613 16.1001 32.2184 16.1725 30.4123C16.9665 30.4554 20.7473 30.4657 21.169 30.4538C21.2625 32.2405 22.7365 33.6612 24.5462 33.6612C26.4162 33.6612 27.9323 32.1453 27.9323 30.2749C27.9323 29.8486 27.8502 29.4423 27.7066 29.0667C29.0344 28.4209 30.2877 27.5493 31.3813 26.4996C32.9064 25.0361 34.0257 23.3095 34.6188 21.5063C35.2862 19.4768 35.4539 17.437 35.1165 15.4434ZM12.7933 31.3923C12.1762 31.3923 11.6759 30.8923 11.6759 30.2749C11.6759 29.6579 12.1762 29.1575 12.7933 29.1575C13.4105 29.1575 13.9107 29.6579 13.9107 30.2749C13.9107 30.8923 13.4105 31.3923 12.7933 31.3923ZM24.5462 31.3923C23.929 31.3923 23.4286 30.8923 23.4286 30.2749C23.4286 29.6579 23.929 29.1575 24.5462 29.1575C25.1635 29.1575 25.6637 29.6579 25.6637 30.2749C25.6639 30.8923 25.1635 31.3923 24.5462 31.3923ZM32.9966 20.9729C32.0187 23.946 29.4413 26.401 26.6945 27.6579C26.1097 27.1773 25.3619 26.889 24.5464 26.889C23.2321 26.889 22.0953 27.6387 21.5342 28.7329C20.9631 28.7574 16.71 28.7411 15.7794 28.6781C15.2089 27.6135 14.0861 26.8889 12.7935 26.8889C11.9336 26.8889 11.1507 27.2118 10.5538 27.74C8.2403 26.9924 6.05534 25.7149 4.4222 23.5478C9.25139 23.5478 8.29845 18.1511 8.92319 14.9508C9.87498 10.0734 14.7001 6.79388 19.3817 6.16148C19.9575 6.08385 20.5333 6.04585 21.1032 6.04585C28.7975 6.04604 35.6466 12.9158 32.9966 20.9729ZM21.0385 23.346C18.2599 23.346 15.7567 21.5242 15.2976 19.1394C15.2086 18.6765 15.5118 18.2287 15.9748 18.1397C16.4379 18.0504 16.8855 18.3538 16.9745 18.8168C17.2444 20.2187 18.923 21.695 21.1606 21.6364C23.4914 21.5754 25.0309 20.1816 25.3472 18.8365C25.4552 18.3776 25.9155 18.0934 26.374 18.2009C26.8333 18.3089 27.1177 18.7686 27.0097 19.2275C26.7513 20.3255 26.0443 21.3428 25.0184 22.0923C23.9499 22.8734 22.6311 23.3061 21.2055 23.3437C21.1498 23.3454 21.094 23.346 21.0385 23.346ZM26.5678 14.5528C26.5678 15.4586 25.8335 16.1929 24.9278 16.1929C24.0223 16.1929 23.2879 15.4586 23.2879 14.5528C23.2879 13.6471 24.0223 12.9132 24.9278 12.9132C25.8335 12.9132 26.5678 13.6469 26.5678 14.5528ZM18.9065 14.5528C18.9065 15.4586 18.1724 16.1929 17.2666 16.1929C16.3611 16.1929 15.6268 15.4586 15.6268 14.5528C15.6268 13.6471 16.3611 12.9132 17.2666 12.9132C18.1724 12.9132 18.9065 13.6469 18.9065 14.5528Z" fill="#F0F0F0" stroke="#F0F0F0" stroke-width="0.00064"/>
</svg>